# xmcd
#
# Track frame offsets:
#	150
#	15384
#	34100
#	53682
#	72074
#	93360
#	108116
#	123715
#	143265
#	159253
#	175418
#	191900
#
# Disc length: 2800 seconds
#
# Revision: 0
# Processed by: cddbd v1.5.1PL0 Copyright (c) Steve Scherf et al.
# Submitted via: EasyCDDAExtractor 4.5.0.2
#
DISCID=920aee0c
DTITLE=Luis Pedraza Espejo - Vamos Pa' Elante
DYEAR=1900
DGENRE=
TTITLE0=Vamos Pa' Elante
TTITLE1=Amor Divino
TTITLE2=Y Me Dijeron
TTITLE3=Mirate Tu 
TTITLE4=Yo Creo En Ti
TTITLE5=Rompe El Hielo
TTITLE6=Loco Por Ti... Loco Por Nada
TTITLE7=Dolor De Amor
TTITLE8=Solo En Ti 
TTITLE9=Salvemos Al Mundo 
TTITLE10=Remedio Total 
TTITLE11=Saname
EXTD=
EXTT0=
EXTT1=
EXTT2=
EXTT3=
EXTT4=
EXTT5=
EXTT6=
EXTT7=
EXTT8=
EXTT9=
EXTT10=
EXTT11=
PLAYORDER=
